<svg width="45" height="44" viewBox="0 0 45 44" xmlns="http://www.w3.org/2000/svg">
    <path d="M30.65 36.66a1.413 1.413 0 0 1-.676-.17l-7.496-4.12-7.496 4.12a1.412 1.412 0 0 1-1.552-.12 1.58 1.58 0 0 1-.58-1.516l1.47-8.688-6.055-6.173a1.597 1.597 0 0 1-.368-1.543c.174-.56.636-.966 1.191-1.05l8.378-1.28 3.69-7.916c.245-.533.759-.87 1.322-.87.563 0 1.077.337 1.323.87l3.733 7.9 8.378 1.281c.555.083 1.017.49 1.19 1.05.16.546.018 1.14-.367 1.543L30.68 26.15l1.47 8.688a1.58 1.58 0 0 1-.588 1.543 1.42 1.42 0 0 1-.91.278z" fill="#897450" fill-rule="evenodd"/>
</svg>
