<svg width="29.333" height="29.333" viewBox="0 0 29.333 29.333" xmlns="http://www.w3.org/2000/svg">
    <path d="M22.817 29.326a1.413 1.413 0 0 1-.676-.17l-7.496-4.12-7.496 4.12a1.412 1.412 0 0 1-1.552-.12 1.58 1.58 0 0 1-.58-1.516l1.47-8.687L.432 12.66a1.597 1.597 0 0 1-.368-1.543c.174-.56.636-.967 1.19-1.05l8.379-1.28L13.322.87c.245-.533.76-.871 1.323-.871s1.077.338 1.322.87l3.734 7.901 8.378 1.281c.555.083 1.016.49 1.19 1.05.16.546.018 1.14-.367 1.543l-6.056 6.172 1.47 8.688a1.58 1.58 0 0 1-.588 1.543 1.42 1.42 0 0 1-.911.278z" fill="#F3F3F3" fill-rule="evenodd"/>
</svg>
