<svg width="48" height="48" viewBox="0 0 48 48" xmlns="http://www.w3.org/2000/svg">
    <g fill="none" fill-rule="evenodd">
        <circle fill="#F2F2F7" cx="24" cy="24" r="24"/>
        <path d="M14 14h20v20H14z"/>
        <path d="M29.833 23.167h-9.308l4.067-4.067a.84.84 0 0 0 0-1.183.83.83 0 0 0-1.175 0l-5.492 5.491a.83.83 0 0 0 0 1.175l5.492 5.492a.83.83 0 1 0 1.175-1.175l-4.067-4.067h9.308a.836.836 0 0 0 .834-.833.836.836 0 0 0-.834-.833z" fill-opacity=".6" fill="#000" fill-rule="nonzero"/>
    </g>
</svg>
