<svg width="40" height="40" viewBox="0 0 40 40" xmlns="http://www.w3.org/2000/svg">
    <g fill="none" fill-rule="evenodd">
        <circle fill="#F2F3F5" cx="20" cy="20" r="20"/>
        <path d="M19.094 28.351c1.201 0 2.453-.219 3.755-.657 1.542-.514 2.537-1.194 2.984-2.038-.193.222-1.078.422-2.653.6-.661.076-1.24.13-1.738.162a20.49 20.49 0 0 1-1.277.048c-2.897 0-4.5-.642-4.807-1.924a5.34 5.34 0 0 1-.14-1.22c0-2.418 1.57-4.447 4.707-6.085.941-.495 1.542-.743 1.802-.743h.07l.371-1.952c-.52.254-.926.45-1.217.59-.29.14-.472.229-.545.267-.782.362-1.406.543-1.873.543-.194 0-.406-.038-.636-.115a2.699 2.699 0 0 1-.636-.304 2.027 2.027 0 0 1-.486-.438.81.81 0 0 1-.195-.505c0-.172.067-.335.2-.49.134-.156.308-.293.521-.41.214-.118.45-.21.706-.276.257-.067.513-.1.766-.1.641 0 1.179.101 1.613.304.026 0 .043-.016.05-.047 0-.203-.079-.415-.236-.634a3.16 3.16 0 0 0-.58-.61 3.39 3.39 0 0 0-.732-.456 1.7 1.7 0 0 0-.696-.176c-.714 0-1.385.457-2.012 1.371-.568.832-.852 1.61-.852 2.333 0 1.054.581 1.762 1.743 2.124-.12.07-.259.186-.416.348a4.776 4.776 0 0 0-.506.643 15.158 15.158 0 0 0-1.457 2.814c-.35.917-.525 1.763-.525 2.538 0 .667.117 1.275.35 1.824.234.549.568 1.022 1.002 1.419a4.6 4.6 0 0 0 1.557.924c.604.219 1.277.328 2.018.328z" fill="#000"/>
    </g>
</svg>
