<svg width="293" height="79" viewBox="0 0 293 79" xmlns="http://www.w3.org/2000/svg">
    <g fill="#746548" fill-rule="evenodd">
        <path d="M15.753 72.418c-.646.128-.732.189-.732 1.041v.963c0 .448.009.852.086 1.18-.792.171-1.955.472-2.997.472-3.032 0-5.03-1.652-5.03-4.207 0-2.856 2.42-4.362 5.194-4.362 1.076 0 2.119.266 2.584.361.034.43.103 1.093.198 2.117l-.474.103c-.284-1.42-1.3-2.04-2.575-2.04-1.603 0-2.98 1.36-2.98 3.606 0 1.867.973 3.89 3.212 3.89.259 0 .577-.044.767-.156.18-.112.31-.327.31-.714v-1.11c0-.92-.078-1.016-1.448-1.144v-.44h3.885v.44zM19.56 70.68c-.535 0-1.07.662-1.07 2.09 0 1.523.535 2.753 1.345 2.753.49 0 1.016-.283 1.016-2.142 0-1.755-.448-2.701-1.275-2.701h-.017zm.189-.49c1.79 0 2.937 1.315 2.937 2.813 0 2.022-1.508 3.02-2.998 3.02-2.024 0-3.023-1.41-3.023-2.788 0-1.996 1.628-3.046 3.075-3.046h.009zM29.222 70.74c-.654.12-.8.275-1.068.852-.465 1.015-1.103 2.52-1.878 4.422h-.508c-.646-1.583-1.223-3.02-1.843-4.448-.224-.525-.396-.68-1.025-.826v-.404h3.17v.404c-.578.146-.646.223-.5.637.327.877.775 2.056 1.008 2.632.232-.576.663-1.72.947-2.606.13-.38.078-.543-.62-.663v-.404h2.317v.404zM31.96 70.688c-.49 0-.921.55-1.008 1.558.526 0 1.017-.017 1.534-.043.19 0 .258-.026.258-.224.017-.654-.284-1.29-.775-1.29h-.009zm2.317 3.924c-.775 1.161-1.791 1.41-2.308 1.41-1.706 0-2.645-1.238-2.645-2.692 0-.912.37-1.704.94-2.254.585-.56 1.3-.887 1.972-.887h.009c1.17 0 2.084.99 2.084 2.005-.017.232-.103.413-.379.447-.25.044-1.809.155-3.049.207.069 1.35.8 2.013 1.723 2.013.49 0 .99-.172 1.438-.55l.215.301zM37.326 71.514c.473-.79.99-1.325 1.446-1.325.526 0 .88.344.88.774 0 .448-.276.801-.621.93-.19.06-.31.026-.396-.052-.216-.172-.397-.267-.603-.267-.25 0-.517.19-.732.689v2.289c0 .774.06.825 1.077.912v.412h-3.532v-.412c.697-.078.827-.138.827-.912v-2.737c0-.627-.104-.68-.69-.817v-.361c.741-.086 1.49-.224 2.318-.465v1.342h.026zM43.742 75.876v-.412c.534-.086.603-.13.603-1.05V72.34c0-.912-.457-1.178-.905-1.178-.327 0-.61.137-.956.387v3.003c0 .782.06.826.603.912v.412h-3.084v-.412c.801-.13.853-.13.853-.99v-2.555c0-.757-.06-.792-.689-.92v-.362c.69-.104 1.542-.276 2.317-.49v.946c.25-.164.517-.38.801-.56.405-.249.646-.344.99-.344 1.034 0 1.689.74 1.689 2.04v2.323c0 .782.069.808.767.912v.412h-2.99zM54.525 75.876v-.412c.569-.078.663-.13.663-.912v-2.126c0-1.075-.525-1.248-.913-1.248-.241 0-.577.087-1.016.422.017.13.034.319.034.517v2.503c0 .706.104.766.698.844v.412h-2.98v-.412c.602-.078.654-.112.654-.844v-2.262c0-.93-.422-1.196-.887-1.196-.319 0-.646.137-1.008.412v3.046c0 .706.086.766.577.844v.412h-3.006v-.412c.741-.086.801-.13.801-.904v-2.616c0-.714-.06-.851-.655-.929v-.378c.552-.086 1.43-.258 2.249-.49v.989c.3-.198.55-.396.835-.577.405-.232.741-.37 1.111-.37.698 0 1.223.396 1.465.99.327-.24.629-.439.939-.654.275-.19.62-.336.99-.336 1.111 0 1.749.723 1.749 2.04v2.391c0 .706.051.732.723.844v.412h-3.023zM60.837 70.688c-.491 0-.922.55-1.008 1.558.525 0 1.016-.017 1.533-.043.19 0 .259-.026.259-.224.017-.654-.285-1.29-.776-1.29h-.008zm2.317 3.924c-.775 1.161-1.792 1.41-2.309 1.41-1.705 0-2.644-1.238-2.644-2.692 0-.912.37-1.704.939-2.254.586-.56 1.3-.887 1.972-.887h.009c1.171 0 2.084.99 2.084 2.005-.017.232-.103.413-.379.447-.25.044-1.808.155-3.049.207.07 1.35.801 2.013 1.723 2.013.49 0 .99-.172 1.438-.55l.216.301zM67.434 75.876v-.412c.534-.086.603-.13.603-1.05V72.34c0-.912-.457-1.178-.905-1.178-.327 0-.611.137-.956.387v3.003c0 .782.06.826.603.912v.412h-3.084v-.412c.801-.13.853-.13.853-.99v-2.555c0-.757-.06-.792-.689-.92v-.362c.69-.104 1.542-.276 2.317-.49v.946c.25-.164.517-.38.801-.56.405-.249.646-.344.99-.344 1.034 0 1.689.74 1.689 2.04v2.323c0 .782.069.808.766.912v.412h-2.988zM73.72 75.885a1.44 1.44 0 0 1-.5.138c-.99 0-1.584-.456-1.584-1.592v-3.476h-.81l-.069-.163.362-.456h.517v-.93l1.456-.998.18.086v1.842h1.241c.147.128.12.498-.078.619h-1.163v3.063c0 .99.483 1.084.716 1.084.197 0 .396-.051.646-.154l.112.456-1.026.48zM81.592 70.68c-.534 0-1.068.662-1.068 2.09 0 1.523.534 2.753 1.344 2.753.49 0 1.016-.283 1.016-2.142 0-1.755-.448-2.701-1.275-2.701h-.017zm.19-.49c1.792 0 2.937 1.315 2.937 2.813 0 2.022-1.507 3.02-2.997 3.02-2.025 0-3.024-1.41-3.024-2.788 0-1.996 1.628-3.046 3.075-3.046h.009zM86.156 70.336v-.302c0-.275.06-.533.172-.852.078-.249.354-.86 1.103-1.48.465-.387.904-.602 1.507-.67.5.025.827.172 1.06.387.18.19.18.395.086.576-.07.12-.18.259-.362.413-.18.138-.319.138-.44.026-.3-.318-.731-.628-1.085-.628-.232 0-.352.138-.413.327-.077.232-.077.671-.026 1.712l.026.49h1.481c.052.13 0 .525-.172.62h-1.309V74.5c0 .792.078.86 1.068.964v.412h-3.497v-.412c.758-.104.8-.172.8-.964v-3.545h-.843l-.06-.163.379-.456h.525zM96.801 69.785h-.034a96.283 96.283 0 0 0-1.034 2.71h2.033l-.965-2.71zm1.12 6.091v-.447c.766-.129.818-.275.629-.809-.13-.37-.328-.912-.543-1.454H95.51c-.147.413-.328.878-.475 1.386-.19.576-.163.756.775.877v.447h-2.885l.017-.447c.879-.103 1.017-.258 1.456-1.342l2.645-6.419.663-.163c.826 2.194 1.628 4.388 2.472 6.539.43 1.11.603 1.282 1.43 1.385v.447h-3.687z"/>
        <path d="M102.459 68.485c0-.507.413-.894.913-.894s.904.387.904.894c0 .474-.404.878-.921.878-.483 0-.896-.404-.896-.878zm-.595 2.143c.767-.077 1.611-.25 2.412-.439v4.07c0 1.015-.111 1.531-.37 2.108-.5 1.153-1.447 2.22-1.775 2.444-.189.137-.292.189-.456.189-.172 0-.5-.302-.5-.714 0-.19.113-.327.302-.345.56-.008.887-.094.965-.25.077-.145.137-.464.164-.91.025-.793.051-1.679.051-2.47v-2.229c0-.946-.103-.972-.793-1.067v-.387zM112.743 75.876v-.412c.568-.078.663-.13.663-.912v-2.126c0-1.075-.525-1.248-.913-1.248-.241 0-.577.087-1.017.422.018.13.035.319.035.517v2.503c0 .706.103.766.697.844v.412h-2.98v-.412c.604-.078.655-.112.655-.844v-2.262c0-.93-.422-1.196-.888-1.196-.318 0-.646.137-1.007.412v3.046c0 .706.086.766.577.844v.412h-3.006v-.412c.74-.086.8-.13.8-.904v-2.616c0-.714-.06-.851-.654-.929v-.378a20.38 20.38 0 0 0 2.248-.49v.989c.302-.198.551-.396.836-.577.405-.232.741-.37 1.111-.37.698 0 1.223.396 1.465.99.326-.24.628-.439.938-.654.276-.19.62-.336.991-.336 1.111 0 1.748.723 1.748 2.04v2.391c0 .706.052.732.724.844v.412h-3.023zM119.442 72.865c-.223.13-.44.258-.706.396-.397.198-.612.421-.612.86 0 .715.475.964.767.964.173 0 .31-.052.551-.215v-2.005zm1.163 3.158c-.362 0-.612-.112-.793-.259a1.068 1.068 0 0 1-.318-.472c-.517.318-1.12.73-1.344.73-1.085 0-1.732-.834-1.732-1.608 0-.672.31-.955.991-1.196.793-.284 1.732-.585 2.033-.835v-.318c0-.809-.293-1.273-.793-1.273-.163 0-.301.086-.413.223-.155.173-.267.49-.379.878-.086.335-.284.422-.551.422-.327 0-.775-.31-.775-.637 0-.241.163-.387.448-.602.482-.328 1.395-.749 2.11-.887.517 0 .878.086 1.232.336.586.43.698.989.698 1.72v2.014c0 .594.206.74.404.74.147 0 .302-.052.44-.112l.138.413-1.396.723zM126.04 75.876v-.412c.533-.086.602-.13.602-1.05V72.34c0-.912-.456-1.178-.904-1.178-.328 0-.612.137-.956.387v3.003c0 .782.06.826.602.912v.412h-3.083v-.412c.801-.13.852-.13.852-.99v-2.555c0-.757-.06-.792-.688-.92v-.362a20.522 20.522 0 0 0 2.317-.49v.946c.25-.164.516-.38.8-.56.406-.249.647-.344.991-.344 1.034 0 1.689.74 1.689 2.04v2.323c0 .782.068.808.766.912v.412h-2.989zM149.125 57.827h2.46V.914h-2.46zM181.146 69.888c-.146-.654-.353-1.092-.577-1.333-.241-.224-.551-.301-1.378-.301h-.569v5.928c0 1.084.138 1.152 1.284 1.247v.448h-4.23v-.448c1.094-.095 1.232-.163 1.232-1.247v-5.928h-.413c-1.172 0-1.379.155-1.56.352-.224.215-.387.655-.55 1.291h-.474c.051-.938.12-1.876.146-2.521h.319c.198.293.37.319.74.319h5.289c.354 0 .526-.078.758-.32h.302c.008.535.086 1.687.146 2.487l-.465.026zM183.764 71.514c.473-.79.99-1.324 1.446-1.324.526 0 .88.344.88.774 0 .447-.277.8-.622.93-.189.06-.31.025-.395-.052-.216-.173-.397-.268-.603-.268-.25 0-.517.19-.733.69v2.288c0 .774.061.826 1.077.912v.413h-3.531v-.413c.697-.078.827-.138.827-.912v-2.736c0-.628-.104-.68-.69-.817v-.362c.74-.086 1.49-.224 2.317-.464v1.341h.027zM189.62 72.866c-.224.128-.44.258-.707.396-.396.197-.611.42-.611.86 0 .714.473.963.766.963.172 0 .31-.051.552-.215v-2.004zm1.163 3.157c-.362 0-.612-.112-.793-.258a1.064 1.064 0 0 1-.319-.473c-.516.318-1.12.731-1.343.731-1.086 0-1.732-.835-1.732-1.61 0-.67.31-.954.99-1.195.793-.284 1.732-.585 2.034-.835v-.318c0-.809-.294-1.273-.793-1.273-.163 0-.302.086-.414.223-.155.173-.266.49-.378.878-.087.336-.285.422-.552.422-.327 0-.775-.31-.775-.637 0-.24.164-.387.448-.602.482-.327 1.395-.749 2.11-.887.517 0 .879.087 1.232.336.586.43.698.99.698 1.72v2.014c0 .594.206.74.405.74.146 0 .301-.051.44-.111l.136.412-1.394.723zM196.216 75.877v-.413c.535-.086.603-.13.603-1.05V72.34c0-.911-.456-1.178-.904-1.178-.327 0-.611.137-.956.387v3.003c0 .782.06.826.603.912v.413h-3.084v-.413c.801-.13.853-.13.853-.99V71.92c0-.757-.06-.792-.689-.92v-.362a20.495 20.495 0 0 0 2.317-.49v.946c.25-.164.516-.379.8-.56.406-.249.647-.343.992-.343 1.033 0 1.688.74 1.688 2.039v2.323c0 .782.069.809.767.912v.413h-2.99zM203.373 71.97c-.336-.74-.75-1.282-1.36-1.282a.65.65 0 0 0-.655.663c0 .388.284.68.964.955 1.043.439 1.714.878 1.714 1.85 0 1.256-1.214 1.867-2.308 1.867-.646 0-1.327-.233-1.594-.421-.068-.198-.18-1.076-.198-1.73l.38-.017c.275.792.878 1.669 1.67 1.669.396 0 .69-.284.69-.662 0-.353-.164-.655-.966-1.024-.576-.276-1.644-.766-1.644-1.868 0-.998.81-1.78 2.144-1.78.603-.017.957.094 1.24.206.139.292.294 1.196.31 1.454l-.387.12zM207.007 74.896c.232.215.75.49 1.06.49.74 0 1.197-.912 1.197-2.125 0-1.557-.801-2.108-1.43-2.108-.327 0-.603.112-.827.301v3.442zm.879-4.457c.275-.163.508-.25.732-.25 1.507 0 2.325 1.214 2.325 2.418 0 1.824-1.49 3.046-3.126 3.416-.328 0-.612-.069-.81-.146v1.643c0 .714.043.792 1.06.886v.413h-3.575v-.413c.827-.077.879-.172.879-.877V71.85c0-.671-.121-.748-.741-.835v-.387c.663-.111 1.507-.327 2.377-.567v.912l.879-.534zM214.75 70.68c-.534 0-1.069.663-1.069 2.09 0 1.523.535 2.754 1.344 2.754.491 0 1.016-.284 1.016-2.143 0-1.754-.447-2.701-1.274-2.701h-.017zm.19-.49c1.79 0 2.936 1.316 2.936 2.813 0 2.022-1.507 3.02-2.997 3.02-2.024 0-3.023-1.41-3.023-2.787 0-1.997 1.627-3.047 3.075-3.047h.008zM220.967 71.514c.474-.79.99-1.324 1.447-1.324.526 0 .88.344.88.774 0 .447-.277.8-.62.93-.19.06-.31.025-.397-.052-.215-.173-.396-.268-.603-.268-.25 0-.517.19-.733.69v2.288c0 .774.061.826 1.077.912v.413h-3.531v-.413c.698-.078.826-.138.826-.912v-2.736c0-.628-.103-.68-.688-.817v-.362c.74-.086 1.49-.224 2.316-.464v1.341h.026zM226.635 75.885a1.44 1.44 0 0 1-.5.138c-.99 0-1.585-.456-1.585-1.592v-3.476h-.81l-.068-.163.361-.456h.517v-.93l1.455-.997.182.086v1.841h1.24c.146.129.12.499-.078.62h-1.162v3.062c0 .99.482 1.085.715 1.085.198 0 .396-.052.646-.155l.111.456-1.024.481zM235.359 69.785h-.035a96.282 96.282 0 0 0-1.033 2.71h2.032l-.964-2.71zm1.12 6.092v-.448c.766-.129.818-.275.628-.808a38.35 38.35 0 0 0-.542-1.454h-2.498c-.147.413-.328.877-.474 1.385-.19.576-.164.757.775.877v.448h-2.885l.017-.448c.878-.103 1.016-.258 1.455-1.342l2.645-6.418.663-.164c.827 2.194 1.628 4.388 2.472 6.54.43 1.109.603 1.281 1.43 1.384v.448h-3.687zM247.012 75.576c-.354.051-.716.111-1.129.198-.414.077-.827.163-1.223.25l-.112-.087v-.766c-.224.181-.362.301-.646.482-.379.224-.732.37-1.111.37-1.06 0-1.688-.67-1.688-1.816v-2.529c0-.585-.087-.654-.414-.749l-.302-.094v-.37c.302-.017.69-.043 1.112-.077.439-.035.904-.086 1.266-.138-.034.516-.034 1.161-.034 1.875v1.825c0 .808.439 1.11.878 1.11.353 0 .655-.087.939-.362v-3.02c0-.585-.069-.68-.413-.749l-.423-.094v-.37c.37-.017.827-.043 1.292-.077.448-.035.88-.086 1.18-.138v4.06c0 .663.07.775.552.844l.276.017v.405zM250.3 75.885a1.44 1.44 0 0 1-.499.138c-.99 0-1.585-.456-1.585-1.592v-3.476h-.81l-.068-.163.361-.456h.517v-.93l1.456-.997.18.086v1.841h1.241c.147.129.12.499-.078.62h-1.162v3.062c0 .99.482 1.085.715 1.085.198 0 .396-.052.646-.155l.112.456-1.025.481zM255.27 75.877v-.413c.629-.086.663-.19.663-.87v-2.176c0-.981-.44-1.308-.956-1.308-.302 0-.646.095-.922.37v3.115c0 .68.043.783.595.869v.413h-3.032v-.413c.723-.078.8-.112.8-.912v-5.86c0-.774-.05-.774-.714-.852v-.37c.663-.076 1.585-.257 2.351-.438V71c.449-.44 1.085-.81 1.706-.81 1.102 0 1.792.698 1.792 2.1v2.263c0 .8.077.8.74.912v.413h-3.023zM261.824 70.68c-.534 0-1.068.663-1.068 2.09 0 1.523.534 2.754 1.344 2.754.49 0 1.016-.284 1.016-2.143 0-1.754-.448-2.701-1.275-2.701h-.017zm.19-.49c1.791 0 2.937 1.316 2.937 2.813 0 2.022-1.507 3.02-2.998 3.02-2.024 0-3.023-1.41-3.023-2.787 0-1.997 1.628-3.047 3.075-3.047h.009zM268.041 71.514c.474-.79.991-1.324 1.448-1.324.525 0 .878.344.878.774 0 .447-.276.8-.62.93-.19.06-.31.025-.396-.052-.215-.173-.396-.268-.603-.268-.25 0-.517.19-.732.69v2.288c0 .774.06.826 1.077.912v.413h-3.532v-.413c.698-.078.826-.138.826-.912v-2.736c0-.628-.103-.68-.688-.817v-.362c.74-.086 1.49-.224 2.317-.464v1.341h.025zM271.383 68.486c0-.508.414-.895.905-.895.516 0 .913.387.913.895 0 .473-.397.877-.931.877a.9.9 0 0 1-.887-.877zm-.638 7.39v-.412c.75-.086.827-.138.827-1.05v-2.435c0-.843-.085-.886-.706-.98v-.371a16.87 16.87 0 0 0 2.335-.438v4.224c0 .878.051.947.843 1.05v.413h-3.299zM277.29 75.885a1.44 1.44 0 0 1-.499.138c-.99 0-1.585-.456-1.585-1.592v-3.476h-.81l-.068-.163.362-.456h.516v-.93l1.456-.997.18.086v1.841h1.242c.146.129.12.499-.078.62h-1.163v3.062c0 .99.482 1.085.715 1.085.198 0 .396-.052.646-.155l.112.456-1.025.481zM284.595 70.74c-.612.112-.74.224-1.077.912-.319.628-.758 1.721-1.507 3.459-.888 2.03-1.146 2.805-1.379 3.545-.103.275-.266.344-.465.344-.352 0-.904-.353-.904-.817 0-.216.086-.327.353-.491.508-.275.827-.525 1.077-.947.13-.206.19-.343.241-.49a.909.909 0 0 0-.043-.602 105.018 105.018 0 0 0-1.602-4.139c-.224-.516-.388-.662-1.017-.774v-.404h3.187v.404c-.525.12-.654.172-.516.55l.982 2.797c.276-.645.74-1.979.964-2.658.138-.388.009-.569-.603-.689v-.404h2.309v.404zM245.581 21.601 292.395.841l-1.076 3.292L244.84 24.96zM264.75 29.663 293 15.756l-.605 2.083-27.644 13.705zM194.261 13.472 213.834 2.99l.336-1.814-19.909 10.413zM235.358 30.47l1.816-2.755 3.363 2.15 1.614-2.688 3.43 2.42-1.48 2.552-3.446-2.015-1.598 2.586zM197.137 31.796l1.816-2.754 3.363 2.15 1.614-2.688 3.43 2.42-1.48 2.552-3.446-2.015-1.598 2.586zM256.797 54.89l1.968-2.67 2.909 2.251 1.883-2.368 3.413 2.502-1.8 2.637-3.11-2.049-1.967 2.2zM212.035 37.02l-3.077-2.234 1.749-2.805 3.127 2.385z"/>
        <path d="m205.343 33.46 1.715-2.655-3.111-2.183-1.648 2.25-3.06-1.847-1.8 2.956 3.195 1.948 1.917-2.402zM263.943 1.48s-2.724 5.575-1.984 7.188c0 0 .875 2.15 1.85.739 0 0 1.042-1.377.773-2.687 0 0-.37-.202-.403.604 0 0-.415 1.604-1.21.135 0 0-.64-1.243.403-3.158l.975-2.15s-.034-.773-.404-.672M266.264 23.885c-.74-.168-.236-1.612-.236-1.612 1.211 0 1.682 1.377 1.682 1.377-1.076.74-1.446.235-1.446.235m1.917-1.511c-.067-.672-1.749-1.512-1.749-1.512-1.816 2.318-1.21 3.46-1.21 3.46.571 1.848 2.219.638 2.219.638 1.143-.638.74-2.586.74-2.586M254.292 31.276l-1.447-1.176s-1.748.235-3.093 2.049c0 0 2.32.907 5.447.806l3.935-2.553-.571 2.856-11.166 7.39 1.177-3.426 2.287-1.546s-2.926-.336-3.464-1.176c0 0 1.514-6.65 6.693-7.323l1.446 1.109-1.244 2.99z"/>
        <path d="M290.276 44.477c-2.522.403-6.692-1.545-6.692-1.545.47-.806.706-2.855.706-2.855 6.39 2.704 5.986 4.4 5.986 4.4m-7.937-2.183s-2.79.47-4.506-2.72c0 0 1.311-2.319 3.296-2.185 0 0 3.396 3.326 1.21 4.905m5.448-3.93s-4.103-2.016-4.943-2.688c0 0-1.01-.705-.471-.672 0 0 .941.27 1.177.235.235-.033.504-.403-.1-.772-.606-.37-4.81-2.62-4.81-2.62v3.292l.572.436s-5.348 5.913-.841 9.037c0 0-8.139 3.695-9.147-2.856 0 0 .37-1.41-1.245.303 0 0-2.287 5.307-6.423 4.5 0 0-3.498-.2-3.06-4.735 0 0-.034-.807-1.312.806 0 0-4.271 6.819-8.105 5.475 0 0-3.397-.638-5.953-6.18 0 0-.504-1.983-3.867 1.343 0 0-3.33 3.36-4.978 8.163 0 0-1.748 7.222-5.919 2.083 0 0-2.454-2.789-1.244-10.817 0 0-2.22.571-.84 10.447 0 0 2.522 7.458 6.826 3.695 0 0 1.043-.57 1.951-3.493 0 0 2.388-7.223 6.827-8.801 0 0 2.623 7.088 8.038 6.886 0 0 3.228.437 7.23-5.98 0 0 1.24 7.133 7.769 3.427 0 0 1.412-.672 2.522-3.259 0 0 .37-.638.505-.47.134.168.268 2.956 3.867 3.662 0 0 4.607.638 9.046-2.62 0 0 1.144-.336 6.323 1.511 0 0 3.027.907 4.17-3.762 0 0 1.009-3.158-3.565-5.576"/>
        <path d="M280.453 54.085s1.55-5.073 2.088-5.51c0 0 .505-.1.168.84l-1.379 4.099s-.168 2.082.807 2.284c0 0 .875-.571 1.245-1.747 0 0 .672-.134 0 1.344 0 0-.908 2.082-1.816 1.998 0 0-1.79.017-1.113-3.308M240.298 54.085s1.55-5.073 2.089-5.51c0 0 .504-.1.167.84l-1.378 4.099s-.168 2.082.807 2.284c0 0 .874-.571 1.244-1.747 0 0 .673-.134 0 1.344 0 0-.908 2.082-1.816 1.998 0 0-1.789.017-1.113-3.308M221.095 54.085s1.55-5.073 2.089-5.51c0 0 .504-.1.167.84l-1.378 4.099s-.168 2.082.807 2.284c0 0 .874-.571 1.244-1.747 0 0 .673-.134 0 1.344 0 0-.908 2.082-1.816 1.998 0 0-1.789.017-1.113-3.308M189.617 54.085s1.55-5.073 2.089-5.51c0 0 .504-.1.168.84l-1.38 4.099s-.167 2.082.808 2.284c0 0 .874-.571 1.244-1.747 0 0 .673-.134 0 1.344 0 0-.908 2.082-1.816 1.998 0 0-1.789.017-1.113-3.308M262.036 6.779s1.55-5.072 2.089-5.509c0 0 .504-.1.167.84l-1.378 4.098s-.168 2.082.807 2.284c0 0 .874-.57 1.244-1.747 0 0 .673-.134 0 1.344 0 0-.908 2.083-1.816 1.999 0 0-1.789.017-1.113-3.309M180.133 39.007s1.55-5.072 2.089-5.509c0 0 .504-.1.168.84l-1.379 4.098s-.168 2.082.807 2.284c0 0 .875-.571 1.244-1.747 0 0 .673-.134 0 1.344 0 0-.907 2.083-1.816 1.999 0 0-1.788.016-1.113-3.31M226.58 3.931l.437.74s1.144 11.387 1.346 13.269c.202 1.88 2.589 25.395 2.589 25.395s.437 8.13.236 8.902c0 0 .302.437.74-1.041 0 0 1.412-3.83.84-10.414s-3.026-30.905-3.026-30.905l-.202-.974.202-.302s1.412 1.982 1.647 2.049c0 0 .673-.034-.269-2.486-.941-2.452-2.993-6.987-2.993-6.987l-1.547 2.754zM249.112 6.485l-2.656-1.949s.74-1.243 2.085-.84c0 0 1.21 1.042.571 2.789zm.707.235c.975-2.05.168-3.864.168-3.864-1.345-2.72-3.7.47-3.7.47a2.502 2.502 0 0 0-.436 2.688c.067.135 2.589 1.982 2.622 2.217.034.236-6.356 6.014-6.356 6.014l-9.213 7.49c-.333.271-.102.404.402.336.504-.067 6.558-4.03 6.558-4.03 7.802-5.711 9.181-9.407 9.181-9.407l1.076.84.841-1.377-1.143-1.377z"/>
        <path d="M204.821 48.744c-1.48-.605-2.287-2.856-2.287-2.856.37-1.276 2.523-2.183 2.523-2.183 1.11.806 1.244 3.796 1.244 3.796l-1.48 1.243zm16.479-9.07c-.034-3.595-2.59-30.67-2.59-30.872 0-.201.226-.37.226-.37l1.456 1.983c.437-.034.236-1.344.236-1.344l-3.43-7.894-1.48 2.89.672.637.975 11.892s1.648 19.45 1.951 23.985c.303 4.534-.067 8.163-.067 8.163-3.565 1.88-5.078-1.277-5.078-1.277-.27-.605-.64-3.023-.64-3.023-.571-.336-2.42 2.418-2.42 2.418-2.355 3.192-4.339 2.486-4.339 2.486.202-.403.589-1.814.589-1.814 1.563-5.341-1.127-6.886-1.127-6.886-3.498.57-4.843 6.214-4.843 6.214-.706 2.016.504 3.09.504 3.09-.773.404-2.185.404-2.185.404-4.54-.101-4.843-8.038-4.843-8.038l-1.312-18.13c-.908-14.176-2.59-23.01-2.59-23.01l-1.277 3.19 1.278 15.822.84 23.38c-1.782 2.89-9.685 7.491-9.685 7.491-7.365 4.972-12.578.571-12.578.571-6.06-5.611-.572-15.52-.572-15.52.37.068 1.076 0 1.076 0 .808-.268 1.783-2.989 1.783-2.989.908-2.351.236-2.72.236-2.72-.202 0-.841 1.746-.841 1.746-.539 1.176-1.312.706-1.312.706-2.253-.84-.303-5.308-.303-5.308 3.06-6.719 2.22-6.315 2.22-6.315-2.32 2.956-4.204 9.002-4.204 9.002-1.513 4.166.639 5.476.639 5.476l-1.95 4.333c-2.825 8.6.269 12.63.269 12.63 3.7 6.619 10.93 4.2 10.93 4.2 4.506-1.579 11.636-7.794 11.636-7.794 3.463-2.821 3.934-5.038 3.934-5.038.337 14.713 10.83 7.793 10.83 7.793 4.707 3.124 8.34-3.695 8.34-3.695 1.11 6.718 6.356 3.83 6.356 3.83 3.228-1.58 2.69-12.295 2.69-12.295z"/>
        <path d="M202.602 22.542s-1.043.403-1.447.403c-.403 0-.504-.538-.504-.538l.504-1.444 1.094.705c.521.538.353.874.353.874m.84-.974s.034-1.378-2.152-2.05c0 0-1.009 2.084-1.11 2.57 0 0-.941 2.2 1.11 2.2 0 0 1.009-.235 1.143-.335.135-.101 1.11-1.243 1.01-2.385M207.714 16.764l-.505 1.646s.269.067.252.772c-.016.706-1.26 4.334 1.833 4.266 0 0 1.312-.134 1.883-2.048 0 0 1.11 1.41 2.254 1.242 0 0 1.143-.032 1.278-2.535 0 0 .168-.925-.169-1.664-.336-.739-.941-2.015-.874-2.418 0 0-.437-.437-.572.503 0 0-.201.706-.134 1.076.067.37.874 2.586.874 2.855 0 0-.807.907-1.883-.773 0 0-.471-3.392-1.21-3.93 0 0-.304-.1-.405.37-.1.47-.336.84-.268 1.209.067.37.807 2.385.538 2.956 0 0-.942 2.486-2.455.537 0 0 .302-1.511.302-2.217 0-.705-.067-1.88-.74-1.847M170.653 4.301l6.558.202s-3.901 2.552-5.885 3.393l4.943-.572s3.162-3.258 3.902-5.307c0 0 .37-.639-2.153-.605l-5.583-.001-1.782 2.89zM179.027 21.4s-1.85-.84-1.816-1.378c.033-.537.403-2.183.672-2.217.27-.034 2.758.571 3.229 2.452.471 1.882.56 2.688.56 2.688s.18.336.483-1.042c0 0 .631-3.359 1.206-3.863 0 0 .98-1.78 2.896-.067 0 0 .27.202.236.571-.034.37-.572 1.56-.572 1.56s-1.614-1.762-2.186-.586c0 0-1.48 4.065-1.681 5.006 0 0-.538 1.075-.841 1.075 0 0-.034-.74-.572-2.42 0 0-.807-2.485-1.21-2.485l-.404.705zM25.248 30.028s-.952 2.703-.952 2.923c0 0-.052.196-.047.318 0 0 .196.234.332.541 0 0 .177.658.61 2.63 0 0 .354 1.422.898 2.534 0 0 .847 1.792 1.076 2.358 0 0 .873 1.74 1.089 3.005 0 0 .04.122.016.32 0 0 .038.232-2.064 1.809 0 0-1.655 1.273-3.073 2.14 0 0-1.715 1.11-3.474 2.007 0 0-1.846.935-3.428 1.523 0 0-1.464.682-4.173.998 0 0-2.905.43-5.167-.542 0 0-2.486-.87-4.092-3.284 0 0-1.17-1.65-1.331-3.79 0 0-.177-1.592.408-3.808 0 0 .653-2.097 1.35-3.644 0 0 1.06-2.143 1.288-2.85 0 0 .044-.234.133-.264 0 0 .074.087.306.577 0 0 .887 1.297 1.704 1.14 0 0 1.108.024 2.142-2.293 0 0 .545-1.123.844-2.377 0 0 .172-.55.128-.943 0 0-.09-.547-.351-.37 0 0-.327.293-.724 1.506 0 0-.297.933-1.048 1.12 0 0-1.664.093-1.884-2.452 0 0-.218-1.028.8-3.1 0 0 1.14-2.149 1.527-3.157 0 0 .411-.947.692-1.746 0 0 .237-.533.09-.612 0 0-.294-.465-.88.628 0 0-.689 1.362-1.502 3.013 0 0-1.24 2.472-1.569 3.47 0 0-.568 1.68-.645 2.676 0 0-.133 1.444.128 1.977 0 0 .137 0-.413.688 0 0-.695.96-1.536 2.665 0 0-.869 1.71-1.505 3.684 0 0-.638 1.82-.828 3.628 0 0-.403 2.406.25 4.645 0 0 .458 1.854 2.056 3.926 0 0 1.954 2.54 5.262 3.198 0 0 2.217.577 5.807-.144 0 0 2.627-.612 5.608-2.143 0 0 2.873-1.544 4.822-2.95 0 0 3.356-2.244 4.228-3.66 0 0 1.28-2.883 1.369-4.74 0 0 .245-1.792-1.198-4.7 0 0-.697-1.323-1.173-2.507 0 0-.39-.867-.471-1.28 0 0-.093-.297.005-.297 0 0 .942.53 1.174.751 0 0 .28-.03.16-.28 0 0-.62-1.254-1.432-2.57 0 0-.631-1.123-.86-1.414 0 0-.362-.563-.482-.481"/>
        <path d="M25.248 30.028s-.952 2.703-.952 2.923c0 0-.052.196-.047.318 0 0 .196.234.332.541 0 0 .177.658.61 2.63 0 0 .354 1.422.898 2.534 0 0 .847 1.792 1.076 2.358 0 0 .873 1.74 1.089 3.005 0 0 .04.122.016.32 0 0 .038.232-2.064 1.809 0 0-1.655 1.273-3.073 2.14 0 0-1.715 1.11-3.474 2.007 0 0-1.846.935-3.428 1.523 0 0-1.464.682-4.173.998 0 0-2.905.43-5.167-.542 0 0-2.486-.87-4.092-3.284 0 0-1.17-1.65-1.331-3.79 0 0-.177-1.592.408-3.808 0 0 .653-2.097 1.35-3.644 0 0 1.06-2.143 1.288-2.85 0 0 .044-.234.133-.264 0 0 .074.087.306.577 0 0 .887 1.297 1.704 1.14 0 0 1.108.024 2.142-2.293 0 0 .545-1.123.844-2.377 0 0 .172-.55.128-.943 0 0-.09-.547-.351-.37 0 0-.327.293-.724 1.506 0 0-.297.933-1.048 1.12 0 0-1.664.093-1.884-2.452 0 0-.218-1.028.8-3.1 0 0 1.14-2.149 1.527-3.157 0 0 .411-.947.692-1.746 0 0 .237-.533.09-.612 0 0-.294-.465-.88.628 0 0-.689 1.362-1.502 3.013 0 0-1.24 2.472-1.569 3.47 0 0-.568 1.68-.645 2.676 0 0-.133 1.444.128 1.977 0 0 .137 0-.413.688 0 0-.695.96-1.536 2.665 0 0-.869 1.71-1.505 3.684 0 0-.638 1.82-.828 3.628 0 0-.403 2.406.25 4.645 0 0 .458 1.854 2.056 3.926 0 0 1.954 2.54 5.262 3.198 0 0 2.217.577 5.807-.144 0 0 2.627-.612 5.608-2.143 0 0 2.873-1.544 4.822-2.95 0 0 3.356-2.244 4.228-3.66 0 0 1.28-2.883 1.369-4.74 0 0 .245-1.792-1.198-4.7 0 0-.697-1.323-1.173-2.507 0 0-.39-.867-.471-1.28 0 0-.093-.297.005-.297 0 0 .942.53 1.174.751 0 0 .28-.03.16-.28 0 0-.62-1.254-1.432-2.57 0 0-.631-1.123-.86-1.414 0 0-.362-.563-.482-.481"/>
        <path d="M16.744 37.578s-1.178 2.687-1.178 2.837c0 0-.37.19 1.579 1.06 0 0 1.834.908 2.014.993 0 0 .076-.035.65-1.248 0 0 .622-1.219.78-1.63 0 0 .122-.198-.34-.429 0 0-1.226-.612-1.917-.94 0 0-.918-.49-1.25-.643 0 0-.218-.116-.338 0"/>
        <path d="M16.744 37.578s-1.178 2.687-1.178 2.837c0 0-.37.19 1.579 1.06 0 0 1.834.908 2.014.993 0 0 .076-.035.65-1.248 0 0 .622-1.219.78-1.63 0 0 .122-.198-.34-.429 0 0-1.226-.612-1.917-.94 0 0-.918-.49-1.25-.643 0 0-.218-.116-.338 0M12.054 15.656s-.218-.329.133-1.213c0 0 .58-1.539.822-1.754 0 0 .444-.663 3.256-.973 0 0 3.793-.313 4.525.111 0 0 .305.318.139.773 0 0-.605 1.313-1.685 2.809 0 0-.736.973-1.253 1.416 0 0-.18.218-1.154.457 0 0-2.388.615-3.558.838 0 0-.444.043-.4-.13 0 0-.194-.06 2.422-1.33 0 0 2.097-1.11 3.055-1.817 0 0-.128-.147-.828-.073 0 0-1.715-.06-3.473.299 0 0-1.563.34-2.001.587"/>
        <path d="M12.054 15.656s-.218-.329.133-1.213c0 0 .58-1.539.822-1.754 0 0 .444-.663 3.256-.973 0 0 3.793-.313 4.525.111 0 0 .305.318.139.773 0 0-.605 1.313-1.685 2.809 0 0-.736.973-1.253 1.416 0 0-.18.218-1.154.457 0 0-2.388.615-3.558.838 0 0-.444.043-.4-.13 0 0-.194-.06 2.422-1.33 0 0 2.097-1.11 3.055-1.817 0 0-.128-.147-.828-.073 0 0-1.715-.06-3.473.299 0 0-1.563.34-2.001.587M49.731 47.148s-1.179 2.687-1.179 2.837c0 0-.365.187 1.58 1.06 0 0 1.834.9 2.011.985 0 0 .076-.028.65-1.243 0 0 .621-1.224.785-1.634 0 0 .117-.191-.338-.427 0 0-1.23-.604-1.924-.947 0 0-.915-.487-1.247-.63 0 0-.218-.123-.338 0"/>
        <path d="M49.731 47.148s-1.179 2.687-1.179 2.837c0 0-.365.187 1.58 1.06 0 0 1.834.9 2.011.985 0 0 .076-.028.65-1.243 0 0 .621-1.224.785-1.634 0 0 .117-.191-.338-.427 0 0-1.23-.604-1.924-.947 0 0-.915-.487-1.247-.63 0 0-.218-.123-.338 0M70.663 26.414s-1.182 2.69-1.182 2.841c0 0-.37.19 1.58 1.064 0 0 1.831.897 2.009.987 0 0 .07-.027.653-1.24 0 0 .615-1.224.781-1.637 0 0 .117-.198-.337-.435l-1.92-.938s-.923-.493-1.246-.642c0 0-.221-.117-.338 0"/>
        <path d="M70.663 26.414s-1.182 2.69-1.182 2.841c0 0-.37.19 1.58 1.064 0 0 1.831.897 2.009.987 0 0 .07-.027.653-1.24 0 0 .615-1.224.781-1.637 0 0 .117-.198-.337-.435l-1.92-.938s-.923-.493-1.246-.642c0 0-.221-.117-.338 0"/>
        <path d="M65.522 27.483s-1.19 2.684-1.19 2.836c0 0-.365.19 1.584 1.066 0 0 1.836.895 2.01.982 0 0 .073-.027.65-1.238 0 0 .621-1.229.787-1.637 0 0 .117-.192-.34-.432 0 0-1.228-.604-1.922-.94 0 0-.923-.493-1.242-.637 0 0-.223-.117-.337 0"/>
        <path d="M65.522 27.483s-1.19 2.684-1.19 2.836c0 0-.365.19 1.584 1.066 0 0 1.836.895 2.01.982 0 0 .073-.027.65-1.238 0 0 .621-1.229.787-1.637 0 0 .117-.192-.34-.432 0 0-1.228-.604-1.922-.94 0 0-.923-.493-1.242-.637 0 0-.223-.117-.337 0M69.418.35s-.204 1.177-.353 1.29c0 0-2.747 1.01-7.27 2.81 0 0-8.482 3.573-12.71 5.844 0 0-6.208 3.222-7.392 4.076 0 0 .057-1.03.294-1.474 0 0 13.512-7.176 17.095-8.595 0 0 6.373-2.563 8.15-3.267 0 0 1.334-.565 2.186-.685"/>
        <path d="M69.418.35s-.204 1.177-.353 1.29c0 0-2.747 1.01-7.27 2.81 0 0-8.482 3.573-12.71 5.844 0 0-6.208 3.222-7.392 4.076 0 0 .057-1.03.294-1.474 0 0 13.512-7.176 17.095-8.595 0 0 6.373-2.563 8.15-3.267 0 0 1.334-.565 2.186-.685M118.781 47.916s.531-1.39.798-1.597c0 0 2.573-1.175 2.872.09 0 0 .188.74-.626 1.811 0 0-.484.637-1.002 1.51 0 0-.806 1.256.088 1.636 0 0 1.491 1.107 5.338-.367 0 0 1.98-.796 2.774-1.42 0 0 .564-.412.692-.372 0 0 .275.098.035.42 0 0-.18.173-1.702 1.177 0 0-1.02.669-2.422 1.525 0 0-1.345.767-2.707 1.06 0 0-1.957.218-2.793-.41 0 0-.928-.77-.487-1.993 0 0 .403-.936.988-1.94l.844-1.267s.117-.209-.41-.326c0 0-.297-.09-1.13.112 0 0-.586.114-.883.435 0 0-.18.076-.267-.084"/>
        <path d="M118.781 47.916s.531-1.39.798-1.597c0 0 2.573-1.175 2.872.09 0 0 .188.74-.626 1.811 0 0-.484.637-1.002 1.51 0 0-.806 1.256.088 1.636 0 0 1.491 1.107 5.338-.367 0 0 1.98-.796 2.774-1.42 0 0 .564-.412.692-.372 0 0 .275.098.035.42 0 0-.18.173-1.702 1.177 0 0-1.02.669-2.422 1.525 0 0-1.345.767-2.707 1.06 0 0-1.957.218-2.793-.41 0 0-.928-.77-.487-1.993 0 0 .403-.936.988-1.94l.844-1.267s.117-.209-.41-.326c0 0-.297-.09-1.13.112 0 0-.586.114-.883.435 0 0-.18.076-.267-.084M110.597 49.273s-.234.826-.45 1.087c0 0-.04.196-.364-.174 0 0-.874-1.224-1.612-.913 0 0-.623.054-.947 1.433 0 0-.204 1.057-.387 2.477 0 0-.207 1.333-.612 2.2 0 0-.12.37-.403.66 0 0-.384.4-.564-.92 0 0-.337-1.54-.732-2.69 0 0-.109-.36-.373-1.01 0 0-.06-.296-.283.155 0 0-.147.395-.308.292 0 0-.915-1.224-1.448-1.531 0 0-.43-.2.28-1.453 0 0 .398-1.087 1.035-.677 0 0 .724.335 1.652 2.393 0 0 .676 2.01.86 2.817 0 0 .08.487.153.618.016.022.03.035.04.035.09 0 .232-1.24.456-2.782 0 0 .288-1.77.753-2.493 0 0 .681-1.232 1.39-1.227 0 0 .77.046 1.34.702 0 0 .524.5.524 1"/>
        <path d="M110.597 49.273s-.234.826-.45 1.087c0 0-.04.196-.364-.174 0 0-.874-1.224-1.612-.913 0 0-.623.054-.947 1.433 0 0-.204 1.057-.387 2.477 0 0-.207 1.333-.612 2.2 0 0-.12.37-.403.66 0 0-.384.4-.564-.92 0 0-.337-1.54-.732-2.69 0 0-.109-.36-.373-1.01 0 0-.06-.296-.283.155 0 0-.147.395-.308.292 0 0-.915-1.224-1.448-1.531 0 0-.43-.2.28-1.453 0 0 .398-1.087 1.035-.677 0 0 .724.335 1.652 2.393 0 0 .676 2.01.86 2.817 0 0 .08.487.153.618.016.022.03.035.04.035.09 0 .232-1.24.456-2.782 0 0 .288-1.77.753-2.493 0 0 .681-1.232 1.39-1.227 0 0 .77.046 1.34.702 0 0 .524.5.524 1M68.227 49.328s.193-.911.76-1.02c0 0 .566-.019 1.407.843 0 0 .493.457.433.593 0 0-.021.26-.334.614 0 0-1.25-.462-2.478.566 0 0-.218.53.136 1.697 0 0 .544 1.474.722 2.477 0 0 .275 1.49.171 2.573 0 0-.038.329-.229 1.008 0 0-.141.142-.174-.005 0 0 .142-1.093-.136-2.341 0 0-.588-2.668-.975-3.712 0 0-.326-1.868.735-2.578 0 0 .55-.302 1.258-.528 0 0-.346-.413-.732-.356 0 0-.28.04-.452.256 0 0-.095.06-.112-.087"/>
        <path d="M68.227 49.328s.193-.911.76-1.02c0 0 .566-.019 1.407.843 0 0 .493.457.433.593 0 0-.021.26-.334.614 0 0-1.25-.462-2.478.566 0 0-.218.53.136 1.697 0 0 .544 1.474.722 2.477 0 0 .275 1.49.171 2.573 0 0-.038.329-.229 1.008 0 0-.141.142-.174-.005 0 0 .142-1.093-.136-2.341 0 0-.588-2.668-.975-3.712 0 0-.326-1.868.735-2.578 0 0 .55-.302 1.258-.528 0 0-.346-.413-.732-.356 0 0-.28.04-.452.256 0 0-.095.06-.112-.087M120.16 13.978c-.05-.114.308-.639.308-.639.413-.699.634-1.599.634-1.599.226-1.278-.087-2.15-.087-2.15-.31-1.105-1.833-.607-1.833-.607-1.68.9-2.368 3-2.368 3-.158.717.15 1.22.15 1.22.444.903 1.761 1.79 1.761 1.79-.177.429-1.865 1.98-1.865 1.98-1.472 1.457-4.195 3.676-4.195 3.676-2.66 2.047-4.2 3.113-4.2 3.113-3.504 2.355-3.15 2.41-3.15 2.41.111.157.533-.055.533-.055.967-.492 2.023-1.19 2.023-1.19 2.03-1.238 3.112-1.948 3.112-1.948 1.949-1.283 2.804-1.993 2.804-1.993 1.835-1.537 2.379-2.113 2.379-2.113 1.361-1.24 2.115-2.216 2.115-2.216 1.152-1.607 1.062-1.227 1.062-1.227.18.038.621.718.621.718.386.41.653 1.058.653 1.058.115-.024.495-1.387.495-1.387.039-.372-.247-.876-.247-.876-.16-.364-.705-.965-.705-.965m-.343-.313c-.474-.266-1.626-1.33-1.626-1.33-.854-.976-.47-1.183-.47-1.183.291-.502 1.089-.647 1.089-.647.86-.269 1.154.261 1.154.261.357.386.24 1.216.24 1.216.054.819-.387 1.683-.387 1.683"/>
        <path d="M135.602 34.013c-1.639-.16-4.405-.37-4.405-.37-2.248-.236-5.72-1.093-5.72-1.093-1.126-.236-5.912-1.612-5.912-1.612-4.215-1.447-5.186-1.425-5.186-1.425-3.158-.125-4.392.952-4.392.952-.264.31-1.287 2.38-1.287 2.38-.292.53-.101.562-.101.562.21-.033.844-.093.844-.093 1.492-.204 3.4.39 3.4.39 1.936.703 2.393.43 2.393.43.343-.096.811-.776.811-.776.147-.044.31-.014.31-.014.251.046 2.748.84 2.748.84a40.73 40.73 0 0 0 2.548.634c1.914.413 1.95.533 1.95.533-.077.074-.282.177-.282.177-.58.283-2.972 1.406-2.972 1.406a32.36 32.36 0 0 1-4.743 2.007c-3.993 1.267-6.065-.39-6.065-.39-.95-.611-2.981-2.941-2.981-2.941-.961-.982-2.54-2.663-2.54-2.663-1.138-1.15-4.288-3.82-4.288-3.82-1.816-1.667-5.382-3.932-5.382-3.932-.689-.398-4.824-3.174-4.824-3.174-1.451-1.003-4.127-2.91-4.127-2.91-1.615-1.158-3.787-2.858-3.787-2.858-.637-.46-.237-.696-.237-.696.416-.451 1.97-1.599 1.97-1.599 1.019-.704 3.197-1.933 3.197-1.933 1.326-.715 3.583-1.8 3.583-1.8 1.211-.615 4.02-1.806 4.02-1.806 1.73-.731 5.28-1.982 5.28-1.982a98.094 98.094 0 0 1 4.639-1.572c1.919-.705 4.668-1.118 4.668-1.118 1.664-.193 2.102.444 2.102.444.498.38.068 1.204.068 1.204-.305.416-1.035 1.131-1.035 1.131-.664.748-2.3 2.524-2.3 2.524-.997 1.134-2.252 3.084-2.252 3.084-.647 1.15-1.464 2.874-1.464 2.874-.645 1.3-1.285 3.168-1.285 3.168-.155.574.444.364.444.364.166-.204.286-.622.286-.622.217-.746.667-1.621.667-1.621.414-1.033 1.475-2.883 1.475-2.883.632-1.256 2.35-3.178 2.35-3.178.416-.5 1.268-1.442 1.268-1.442 1.127-1.074 2.085-2.518 2.085-2.518.709-1.242 1.005-1.969 1.005-1.969.825-1.925.46-2.67.46-2.67-.16-1.23-2.395-1.107-2.395-1.107-1.402.024-4.906 1.077-4.906 1.077-1.2.31-4.985 1.54-4.985 1.54-1.712.6-6.104 2.229-6.104 2.229-1.914.832-6.558 3.021-6.558 3.021-3.547 1.68-6.16 3.889-6.16 3.889-1.038 1.18-.967 2.24-.967 2.24-.202 3.054.444 4.33.444 4.33.282.522 3.37 2.988 3.37 2.988 1.987 1.48 5.793 4.787 5.793 4.787 1.66 1.506 4.498 3.943 4.498 3.943 1.894 1.74 3.912 4.244 3.912 4.244 1.642 2.233 1.367 2.991 1.367 2.991-.894.762-3.183 1.648-3.183 1.648-.414.248-.428-.038-.428-.038-.204-.666-.666-1.541-.666-1.541-.605-1.197-1.996-2.007-1.996-2.007-1.903-.876-3.278.457-3.278.457-1.641 1.19-2.279 4.016-2.279 4.016-.274 2.63 1.258 3.407 1.258 3.407 1.048.68 3.234.207 3.234.207.874-.218 2.707-.74 2.707-.74.079.036.087.356.087.356.103.503.092.93.092.93-.34.476-1.031 1.23-1.031 1.23-1.28 1.68-4.365 4.027-4.365 4.027-2.235 2.072-5.167 3.513-5.167 3.513-2.828 1.43-4.971.479-4.971.479-1.998-.688-3.163-2.766-3.163-2.766-.991-1.637-.735-3.709-.735-3.709.038-1.126.718-2.92.718-2.92.243-.664.284-.558.284-.558.443-.106 1.859-.533 1.859-.533 1.11-.41 2.605-1.49 2.605-1.49.757-.59.915-.86.915-.86.607-1.193.934-2.256.934-2.256.47-1.488.395-3.31.395-3.31-.21-1.914-.956-3.037-.956-3.037-.757-1.251-1.644-1.213-1.644-1.213-.904-.087-1.786 1.123-1.786 1.123-.948.95-1.688 3.75-1.688 3.75-.417 1.387-.784 4.645-.784 4.645-1.419.138-2.497-.248-2.497-.248-1.255-.53-1.95-1.737-1.95-1.737a20.614 20.614 0 0 1-1.49-2.984c-.325-.655-.58-.696-.58-.696-1.062-.78-3.249.84-3.249.84-1.48.857-3.182 5.05-3.182 5.05-.44 1.12-1.593 4.18-1.593 4.18-1.658 4.074-3.024 3.255-3.024 3.255-1.334-.332-2.793-2.695-2.793-2.695-.651-1.166-1.016-3.086-1.016-3.086-.18-1.33.098-1.281.098-1.281l1.323-.506c1.007-.383 3.918-1.558 3.918-1.558 1.522-.55 1.45-.73 1.45-.73.23-.358 1.093-2.36 1.093-2.36.206-.497-.074-.548-.074-.548-.318-.052-3.604.472-3.604.472-1.677.261-5.736.607-5.736.607-1.267.212-5.908.672-5.908.672-1.917.258-5.663.38-5.663.38-.313 0-.07-.152-.07-.152.179-.199 3.55-1.993 3.55-1.993 2.324-1.279 9.223-4.982 9.223-4.982 2.774-1.441 6.73-3.51 6.73-3.51.313-.455 1.064-2.666 1.064-2.666.12-.389-.163-.405-.163-.405-.322.139-3.444 1.751-3.444 1.751-1.375.781-6.501 3.201-6.501 3.201-2.597.764-6.106-1.629-6.106-1.629-1.92-1.373-2.894-3.143-2.894-3.143-.738-1.368-.738-1.996-.738-1.996.073-.318.572-.685.572-.685 1.464-1.523 5.442-2.06 5.442-2.06 2.376-.44 5.469-.04 5.469-.04 1.685.112 3.044 1.107 3.044 1.107.24.03.207-.234.207-.234 0-.326-2.546-2.19-2.546-2.19-2.613-1.903-5.73-1.723-5.73-1.723-3.077.226-5.535 2.145-5.535 2.145-1.724 1.499-2.363 4.025-2.363 4.025-.455 1.667.541 4.041.541 4.041.842 2.056 2.29 3.293 2.29 3.293 1.181 1.126 2.877 1.828 2.877 1.828.025.084-.22.176-.22.176-1.086.618-4.947 2.769-4.947 2.769-2.436 1.307-5.717 3.823-5.717 3.823-.111.364-.688 2.461-.688 2.461-.11.405-.147.266-.147.266-.12-.524-.422-3.853-.422-3.853-.093-1.482-.316-5.31-.316-5.31-.112-2.22-.398-7.09-.398-7.09-.092-2.102-.601-8.55-.601-8.55-.175-2.37-.488-6.104-.488-6.104-.416-4.343-1.108-6.491-1.108-6.491-.31-.86-.686.266-.686.266-.157.44-.868 2.57-.868 2.57.155.331.468 1.814.468 1.814.468 1.664.871 7.507.871 7.507.15 1.825.596 7.851.596 7.851.115 1.773.406 6.91.406 6.91.122 2.513.474 8.648.474 8.648.1 2.188.844 6.485.844 6.485.713 3.11 2.178 5.314 2.178 5.314 1.875 2.7 5.126 4.443 5.126 4.443 2.13 1.118 5.52 1.61 5.52 1.61.834.117.848-.264.848-.264.313-.84.547-2.12.547-2.12.229-1.001-.213-1.16-.213-1.16-3.41-.9-4.693-1.71-4.693-1.71-2.192-1.063-2.219-2.929-2.219-2.929.368-.76 2.257-2.047 2.257-2.047 1.473-1.093 3.85-2.157 3.85-2.157 1.508-.756 3.117-1.44 3.117-1.44 1.247-.602 3.528-1.513 3.528-1.513.607-.307.51.06.51.06l.04 1.92c.117 1.528.357 2.11.357 2.11a7.989 7.989 0 0 0 1.304 2.616c2.033 2.747 3.779 2.178 3.779 2.178.683-.103 1.135-.514 1.135-.514.727-.53 1.47-2.643 1.47-2.643l.697-1.909c.408-1.204 1.478-3.831 1.478-3.831.477-1.311 1.122-2.018 1.122-2.018.781-1.088 2.082-1.54 2.082-1.54 1.56-.739 2.04 1.1 2.04 1.1.522 1.337 1.505 2.8 1.505 2.8.414.498 1.078 1.058 1.078 1.058 1.34 1.017 3 .881 3 .881.158.03.114.136.114.136-.19.438-.334 1.09-.656 2.388 0 .01-.003.021-.003.038-.32 1.297-.326 3.307-.326 3.307a6.759 6.759 0 0 0 .188 1.664c.49 1.77 1.505 3.236 1.505 3.236 1.925 2.613 4.955 2.632 4.955 2.632 2.273 0 4.849-1.79 4.849-1.79 1.492-.992 4.472-3.497 4.472-3.497.755-.638 2.927-2.798 2.927-2.798 1.996-2.074 2.06-2.526 2.06-2.526.322-.731.624-2.238.624-2.238.235-.897.259-2.056.259-2.056.05-.1.308-.214.308-.214.384-.166 1.383-.689 1.383-.689.92-.383 1.522-1.4 1.522-1.4.612-1.487.694-3.772.694-3.772.087-1.754-.43-2.692-.43-2.692-.06-.234.068-.215.068-.215.138.057 1.453 1.295 1.453 1.295.928.832 2.206 2.216 2.206 2.216 1.072 1.137 3.027 3.217 3.027 3.217a32.895 32.895 0 0 0 1.388 1.417c1.095.886 2.51.957 2.51.957 2.44.169 4.378-.601 4.378-.601 2.172-.8 3.803-1.683 3.803-1.683 2.284-1.256 5.671-2.758 5.671-2.758 2.7-1.025 5.556-.892 5.556-.892 1.402.014 3.978.33 3.978.33.618-.844 1.432-2.875 1.432-2.875a.206.206 0 0 0-.134-.196m-45.504 6.434s-.621-.22-.548-.432c0 0 .387-.685 1.35-1.093 0 0 .422-.231 1.563.413 0 0 .945.544 1.242 1.036 0 0-2.148.65-3.607.076m-11.783-3.87s.795-1.772 1.865-2.186c0 0 .661-.198 1.527 1.02 0 0 .58.911.912 2.417 0 0 .177.441-1.778 1.48 0 0-.838.495-1.731.778 0 0-1.152.478-1.38.269 0 0 .026-2.51.585-3.777m-27.883 3.946s-1.002.43-3.038 1.375c0 0-1.623.762-2.638 1.363 0 0-1.452.93-2.29 1.746 0 0-1.105 1.104-1.391 1.67 0 0-.46 1.182-.523 1.74 0 0-.291 1.484-.155 2.137 0 0-.033.182-.158.106 0 0-1.644-1.267-2.695-2.953 0 0-.803-1.074-1.307-2.923 0 0-.278-1.27-.444-2.168 0 0-.111-.72-.122-.96 0 0 0 .036.114-.081 0 0 .528-.539 2.6-.601 0 0 4.108-.093 6.414-.337 0 0 2.97-.291 4.323-.487 0 0 1.24-.136 2.089-.248 0 0 .612-.1.66-.04 0 0 .358-.085-1.439.66M25.248 29.677s-.952 2.703-.952 2.923c0 0-.052.198-.047.312 0 0 .196.245.332.555 0 0 .177.656.61 2.62 0 0 .354 1.427.898 2.542 0 0 .847 1.775 1.076 2.346 0 0 .873 1.74 1.089 3.003 0 0 .04.125.016.323 0 0 .038.234-2.064 1.811 0 0-1.655 1.27-3.073 2.143 0 0-1.715 1.11-3.474 2.01 0 0-1.846.924-3.428 1.52 0 0-1.464.68-4.173 1 0 0-2.905.433-5.167-.541 0 0-2.486-.878-4.092-3.29 0 0-1.17-1.645-1.331-3.78 0 0-.177-1.599.408-3.812 0 0 .653-2.102 1.35-3.65 0 0 1.06-2.137 1.288-2.844 0 0 .044-.24.133-.27 0 0 .074.096.306.577 0 0 .887 1.303 1.704 1.142 0 0 1.108.025 2.142-2.295 0 0 .545-1.115.844-2.369 0 0 .172-.552.128-.946 0 0-.09-.552-.351-.37 0 0-.327.291-.724 1.501 0 0-.297.93-1.048 1.12 0 0-1.664.096-1.884-2.45 0 0-.218-1.03.8-3.1 0 0 1.14-2.15 1.527-3.16 0 0 .411-.94.692-1.737 0 0 .237-.533.09-.623 0 0-.294-.45-.88.634 0 0-.689 1.357-1.502 3.013 0 0-1.24 2.47-1.569 3.467 0 0-.568 1.686-.645 2.676 0 0-.133 1.447.128 1.98 0 0 .137 0-.413.69 0 0-.695.957-1.536 2.66 0 0-.869 1.713-1.505 3.69 0 0-.638 1.817-.828 3.633 0 0-.403 2.407.25 4.631 0 0 .458 1.863 2.056 3.935 0 0 1.954 2.534 5.262 3.2 0 0 2.217.571 5.807-.143 0 0 2.627-.613 5.608-2.149 0 0 2.873-1.547 4.822-2.95 0 0 3.356-2.244 4.228-3.658 0 0 1.28-2.882 1.369-4.742 0 0 .245-1.795-1.198-4.7 0 0-.697-1.323-1.173-2.504 0 0-.39-.875-.471-1.28 0 0-.093-.303.005-.303 0 0 .942.54 1.174.756 0 0 .28-.032.16-.28 0 0-.62-1.259-1.432-2.572 0 0-.631-1.115-.86-1.417 0 0-.362-.566-.482-.478"/>
        <path d="M25.248 29.677s-.952 2.703-.952 2.923c0 0-.052.198-.047.312 0 0 .196.245.332.555 0 0 .177.656.61 2.62 0 0 .354 1.427.898 2.542 0 0 .847 1.775 1.076 2.346 0 0 .873 1.74 1.089 3.003 0 0 .04.125.016.323 0 0 .038.234-2.064 1.811 0 0-1.655 1.27-3.073 2.143 0 0-1.715 1.11-3.474 2.01 0 0-1.846.924-3.428 1.52 0 0-1.464.68-4.173 1 0 0-2.905.433-5.167-.541 0 0-2.486-.878-4.092-3.29 0 0-1.17-1.645-1.331-3.78 0 0-.177-1.599.408-3.812 0 0 .653-2.102 1.35-3.65 0 0 1.06-2.137 1.288-2.844 0 0 .044-.24.133-.27 0 0 .074.096.306.577 0 0 .887 1.303 1.704 1.142 0 0 1.108.025 2.142-2.295 0 0 .545-1.115.844-2.369 0 0 .172-.552.128-.946 0 0-.09-.552-.351-.37 0 0-.327.291-.724 1.501 0 0-.297.93-1.048 1.12 0 0-1.664.096-1.884-2.45 0 0-.218-1.03.8-3.1 0 0 1.14-2.15 1.527-3.16 0 0 .411-.94.692-1.737 0 0 .237-.533.09-.623 0 0-.294-.45-.88.634 0 0-.689 1.357-1.502 3.013 0 0-1.24 2.47-1.569 3.467 0 0-.568 1.686-.645 2.676 0 0-.133 1.447.128 1.98 0 0 .137 0-.413.69 0 0-.695.957-1.536 2.66 0 0-.869 1.713-1.505 3.69 0 0-.638 1.817-.828 3.633 0 0-.403 2.407.25 4.631 0 0 .458 1.863 2.056 3.935 0 0 1.954 2.534 5.262 3.2 0 0 2.217.571 5.807-.143 0 0 2.627-.613 5.608-2.149 0 0 2.873-1.547 4.822-2.95 0 0 3.356-2.244 4.228-3.658 0 0 1.28-2.882 1.369-4.742 0 0 .245-1.795-1.198-4.7 0 0-.697-1.323-1.173-2.504 0 0-.39-.875-.471-1.28 0 0-.093-.303.005-.303 0 0 .942.54 1.174.756 0 0 .28-.032.16-.28 0 0-.62-1.259-1.432-2.572 0 0-.631-1.115-.86-1.417 0 0-.362-.566-.482-.478"/>
        <path d="M16.744 37.232s-1.178 2.685-1.178 2.826c0 0-.37.196 1.579 1.068 0 0 1.834.9 2.014.985 0 0 .076-.024.65-1.237 0 0 .622-1.224.78-1.635 0 0 .122-.196-.34-.432l-1.917-.944s-.918-.486-1.25-.63c0 0-.218-.126-.338 0"/>
        <path d="M16.744 37.232s-1.178 2.685-1.178 2.826c0 0-.37.196 1.579 1.068 0 0 1.834.9 2.014.985 0 0 .076-.024.65-1.237 0 0 .622-1.224.78-1.635 0 0 .122-.196-.34-.432l-1.917-.944s-.918-.486-1.25-.63c0 0-.218-.126-.338 0M12.054 15.307s-.218-.332.133-1.22c0 0 .58-1.527.822-1.75 0 0 .444-.668 3.256-.978 0 0 3.793-.302 4.525.12 0 0 .305.31.139.774 0 0-.605 1.311-1.685 2.807 0 0-.736.968-1.253 1.413 0 0-.18.22-1.154.463 0 0-2.388.612-3.558.84 0 0-.444.038-.4-.133 0 0-.194-.063 2.422-1.335 0 0 2.097-1.107 3.055-1.811 0 0-.128-.153-.828-.08 0 0-1.715-.054-3.473.297 0 0-1.563.346-2.001.593"/>
        <path d="M12.054 15.307s-.218-.332.133-1.22c0 0 .58-1.527.822-1.75 0 0 .444-.668 3.256-.978 0 0 3.793-.302 4.525.12 0 0 .305.31.139.774 0 0-.605 1.311-1.685 2.807 0 0-.736.968-1.253 1.413 0 0-.18.22-1.154.463 0 0-2.388.612-3.558.84 0 0-.444.038-.4-.133 0 0-.194-.063 2.422-1.335 0 0 2.097-1.107 3.055-1.811 0 0-.128-.153-.828-.08 0 0-1.715-.054-3.473.297 0 0-1.563.346-2.001.593M49.731 46.795s-1.179 2.681-1.179 2.83c0 0-.365.196 1.58 1.064 0 0 1.834.906 2.011.99 0 0 .076-.025.65-1.23 0 0 .621-1.232.785-1.647 0 0 .117-.19-.338-.427 0 0-1.23-.607-1.924-.941 0 0-.915-.495-1.247-.64 0 0-.218-.12-.338 0"/>
        <path d="M49.731 46.795s-1.179 2.681-1.179 2.83c0 0-.365.196 1.58 1.064 0 0 1.834.906 2.011.99 0 0 .076-.025.65-1.23 0 0 .621-1.232.785-1.647 0 0 .117-.19-.338-.427 0 0-1.23-.607-1.924-.941 0 0-.915-.495-1.247-.64 0 0-.218-.12-.338 0M70.663 26.068S69.48 28.76 69.48 28.91c0 0-.37.184 1.58 1.055l2.009.99s.07-.027.653-1.238c0 0 .615-1.226.781-1.642 0 0 .117-.19-.337-.427 0 0-1.231-.604-1.92-.94 0 0-.923-.496-1.246-.64 0 0-.221-.123-.338 0"/>
        <path d="M70.663 26.068S69.48 28.76 69.48 28.91c0 0-.37.184 1.58 1.055l2.009.99s.07-.027.653-1.238c0 0 .615-1.226.781-1.642 0 0 .117-.19-.337-.427 0 0-1.231-.604-1.92-.94 0 0-.923-.496-1.246-.64 0 0-.221-.123-.338 0"/>
        <path d="M65.522 27.128s-1.19 2.687-1.19 2.837c0 0-.365.19 1.584 1.066 0 0 1.836.903 2.01.981 0 0 .073-.021.65-1.24 0 0 .621-1.22.787-1.634 0 0 .117-.201-.34-.43 0 0-1.228-.6-1.922-.943 0 0-.923-.487-1.242-.637 0 0-.223-.12-.337 0"/>
        <path d="M65.522 27.128s-1.19 2.687-1.19 2.837c0 0-.365.19 1.584 1.066 0 0 1.836.903 2.01.981 0 0 .073-.021.65-1.24 0 0 .621-1.22.787-1.634 0 0 .117-.201-.34-.43 0 0-1.228-.6-1.922-.943 0 0-.923-.487-1.242-.637 0 0-.223-.12-.337 0M69.418 0s-.204 1.178-.353 1.294c0 0-2.747 1.01-7.27 2.807 0 0-8.482 3.578-12.71 5.843 0 0-6.208 3.223-7.392 4.074 0 0 .057-1.028.294-1.474 0 0 13.512-7.168 17.095-8.593 0 0 6.373-2.562 8.15-3.271 0 0 1.334-.566 2.186-.68"/>
        <path d="M69.418 0s-.204 1.178-.353 1.294c0 0-2.747 1.01-7.27 2.807 0 0-8.482 3.578-12.71 5.843 0 0-6.208 3.223-7.392 4.074 0 0 .057-1.028.294-1.474 0 0 13.512-7.168 17.095-8.593 0 0 6.373-2.562 8.15-3.271 0 0 1.334-.566 2.186-.68M118.781 47.564s.531-1.389.798-1.596c0 0 2.573-1.183 2.872.087 0 0 .188.74-.626 1.817 0 0-.484.64-1.002 1.503 0 0-.806 1.257.088 1.64 0 0 1.491 1.11 5.338-.37 0 0 1.98-.799 2.774-1.416 0 0 .564-.41.692-.364 0 0 .275.089.035.407 0 0-.18.177-1.702 1.189 0 0-1.02.658-2.422 1.511 0 0-1.345.77-2.707 1.07 0 0-1.957.223-2.793-.422 0 0-.928-.759-.487-1.988 0 0 .403-.927.988-1.933 0 0 .577-.87.844-1.265 0 0 .117-.212-.41-.332 0 0-.297-.084-1.13.106 0 0-.586.117-.883.444 0 0-.18.07-.267-.088"/>
        <path d="M118.781 47.564s.531-1.389.798-1.596c0 0 2.573-1.183 2.872.087 0 0 .188.74-.626 1.817 0 0-.484.64-1.002 1.503 0 0-.806 1.257.088 1.64 0 0 1.491 1.11 5.338-.37 0 0 1.98-.799 2.774-1.416 0 0 .564-.41.692-.364 0 0 .275.089.035.407 0 0-.18.177-1.702 1.189 0 0-1.02.658-2.422 1.511 0 0-1.345.77-2.707 1.07 0 0-1.957.223-2.793-.422 0 0-.928-.759-.487-1.988 0 0 .403-.927.988-1.933 0 0 .577-.87.844-1.265 0 0 .117-.212-.41-.332 0 0-.297-.084-1.13.106 0 0-.586.117-.883.444 0 0-.18.07-.267-.088M110.597 48.921s-.234.824-.45 1.093c0 0-.04.193-.364-.176 0 0-.874-1.227-1.612-.917 0 0-.623.06-.947 1.436 0 0-.204 1.058-.387 2.474 0 0-.207 1.333-.612 2.198 0 0-.12.375-.403.666 0 0-.384.402-.564-.93 0 0-.337-1.531-.732-2.686 0 0-.109-.357-.373-1.004 0 0-.06-.294-.283.147 0 0-.147.4-.308.299 0 0-.915-1.226-1.448-1.536 0 0-.43-.196.28-1.453 0 0 .398-1.087 1.035-.672 0 0 .724.34 1.652 2.39 0 0 .676 2.008.86 2.815 0 0 .08.487.153.629.016.013.03.021.04.021.09 0 .232-1.237.456-2.779 0 0 .288-1.764.753-2.49 0 0 .681-1.238 1.39-1.224 0 0 .77.049 1.34.707 0 0 .524.495.524.992"/>
        <path d="M110.597 48.921s-.234.824-.45 1.093c0 0-.04.193-.364-.176 0 0-.874-1.227-1.612-.917 0 0-.623.06-.947 1.436 0 0-.204 1.058-.387 2.474 0 0-.207 1.333-.612 2.198 0 0-.12.375-.403.666 0 0-.384.402-.564-.93 0 0-.337-1.531-.732-2.686 0 0-.109-.357-.373-1.004 0 0-.06-.294-.283.147 0 0-.147.4-.308.299 0 0-.915-1.226-1.448-1.536 0 0-.43-.196.28-1.453 0 0 .398-1.087 1.035-.672 0 0 .724.34 1.652 2.39 0 0 .676 2.008.86 2.815 0 0 .08.487.153.629.016.013.03.021.04.021.09 0 .232-1.237.456-2.779 0 0 .288-1.764.753-2.49 0 0 .681-1.238 1.39-1.224 0 0 .77.049 1.34.707 0 0 .524.495.524.992M68.227 48.982s.193-.914.76-1.02c0 0 .566-.025 1.407.835 0 0 .493.467.433.6 0 0-.021.265-.334.618 0 0-1.25-.47-2.478.557 0 0-.218.536.136 1.706 0 0 .544 1.468.722 2.469 0 0 .275 1.495.171 2.577 0 0-.038.33-.229 1.007 0 0-.141.144-.174-.008 0 0 .142-1.088-.136-2.34 0 0-.588-2.664-.975-3.705 0 0-.326-1.885.735-2.592 0 0 .55-.291 1.258-.527 0 0-.346-.411-.732-.349 0 0-.28.03-.452.25 0 0-.095.063-.112-.078"/>
        <path d="M68.227 48.982s.193-.914.76-1.02c0 0 .566-.025 1.407.835 0 0 .493.467.433.6 0 0-.021.265-.334.618 0 0-1.25-.47-2.478.557 0 0-.218.536.136 1.706 0 0 .544 1.468.722 2.469 0 0 .275 1.495.171 2.577 0 0-.038.33-.229 1.007 0 0-.141.144-.174-.008 0 0 .142-1.088-.136-2.34 0 0-.588-2.664-.975-3.705 0 0-.326-1.885.735-2.592 0 0 .55-.291 1.258-.527 0 0-.346-.411-.732-.349 0 0-.28.03-.452.25 0 0-.095.063-.112-.078M120.16 13.624c-.05-.106.308-.634.308-.634.413-.699.634-1.596.634-1.596.226-1.284-.087-2.149-.087-2.149-.31-1.114-1.833-.609-1.833-.609-1.68.9-2.368 2.992-2.368 2.992-.158.726.15 1.229.15 1.229.444.9 1.761 1.784 1.761 1.784-.177.43-1.865 1.977-1.865 1.977-1.472 1.465-4.195 3.679-4.195 3.679-2.66 2.053-4.2 3.114-4.2 3.114-3.504 2.365-3.15 2.404-3.15 2.404.111.165.533-.039.533-.039a28.499 28.499 0 0 0 2.023-1.196c2.03-1.245 3.112-1.953 3.112-1.953 1.949-1.286 2.804-1.987 2.804-1.987 1.835-1.54 2.379-2.119 2.379-2.119 1.361-1.232 2.115-2.224 2.115-2.224 1.152-1.597 1.062-1.216 1.062-1.216.18.03.621.713.621.713.386.41.653 1.066.653 1.066.115-.035.495-1.393.495-1.393.039-.361-.247-.87-.247-.87-.16-.37-.705-.973-.705-.973m-.343-.313c-.474-.26-1.626-1.327-1.626-1.327-.854-.974-.47-1.18-.47-1.18.291-.506 1.089-.653 1.089-.653.86-.261 1.154.272 1.154.272.357.38.24 1.205.24 1.205.054.83-.387 1.683-.387 1.683"/>
    </g>
</svg>
